<svg width="256" height="256" viewBox="0 0 256 256" fill="none" xmlns="http://www.w3.org/2000/svg">
<path fill-rule="evenodd" clip-rule="evenodd" d="M88.5285 21.9834C89.11 22.9442 90.1576 23.5359 91.2806 23.5359C99.6811 23.5359 107.142 27.5566 111.845 33.7786C80.5491 39.0663 54.4321 59.5917 41.3901 87.4588C29.1067 85.4985 19.7197 74.8554 19.7197 62.0199C19.7197 49.8908 28.1017 39.7195 39.3892 36.9825C40.1614 36.7952 40.7109 36.0984 40.7109 35.3038C40.7109 21.0758 52.245 9.54175 66.473 9.54175C75.8261 9.54175 84.015 14.5261 88.5285 21.9834Z" fill="#F9FBFF"/>
<mask id="mask0_345_193" style="mask-type:alpha" maskUnits="userSpaceOnUse" x="32" y="32" width="192" height="192">
<circle cx="127.856" cy="127.856" r="89.415" fill="white" stroke="#F9F5F0" stroke-width="12"/>
</mask>
<g mask="url(#mask0_345_193)">
<path d="M220.094 68.1337C218.331 68.1337 216.675 67.2855 215.572 65.9101C208.571 57.1849 196.121 51.3799 181.928 51.3799C160.039 51.3799 142.294 65.1885 142.294 82.2222V82.2222C142.294 83.1603 141.632 83.9842 140.709 84.1496C123.118 87.3 110 99.5613 110 114.207C110 131.241 127.745 145.049 149.634 145.049C152.973 145.049 156.215 144.728 159.313 144.123C166.372 148.061 175.025 150.38 184.374 150.38C199.354 150.38 212.548 144.427 220.262 135.395C223.27 136.222 226.508 136.672 229.881 136.672C241.832 136.672 252.088 131.021 256.474 122.964C276.663 122.916 293 114.411 293 103.926C293 93.4113 276.57 84.8875 256.302 84.8875C255.989 84.8875 255.676 84.8895 255.365 84.8936C248.79 74.9415 235.464 68.1337 220.094 68.1337V68.1337Z" fill="#F9FBFF"/>
</g>
<path fill-rule="evenodd" clip-rule="evenodd" d="M127.5 223C180.243 223 223 180.243 223 127.5C223 74.7568 180.243 32 127.5 32C74.7568 32 32 74.7568 32 127.5C32 180.243 74.7568 223 127.5 223ZM127.5 197C165.884 197 197 165.884 197 127.5C197 89.1162 165.884 58 127.5 58C89.1162 58 58 89.1162 58 127.5C58 165.884 89.1162 197 127.5 197Z" fill="#F9FBFF"/>
<path d="M182.618 175.38C177.69 177.488 172.646 175.125 168.909 171.282C164.228 166.468 157.682 163.478 150.437 163.478C139.821 163.478 130.705 169.898 126.761 179.068C126.349 180.025 125.399 180.652 124.357 180.652V180.652C110.129 180.652 98.5947 192.186 98.5947 206.414C98.5947 220.642 110.129 232.176 124.357 232.176V232.176C129.826 232.176 135.558 234.385 139.47 238.206C144.515 243.134 151.415 246.171 159.025 246.171C167.201 246.171 174.559 242.664 179.676 237.074C180.996 235.631 182.832 234.721 184.787 234.721V234.721C201.519 234.721 215.758 228.808 221.059 220.55C222.787 217.858 225.337 215.458 228.452 214.73C237.668 212.573 244.262 206.817 244.262 200.053C244.262 191.446 233.583 184.469 220.408 184.469C219.483 184.469 218.569 184.503 217.671 184.57C214.561 184.803 211.384 184.227 208.935 182.297C203.503 178.014 197.74 173.472 189.377 173.472C187.493 173.472 185.07 174.332 182.618 175.38Z" fill="#F9FBFF"/>
</svg>
